<?xml version="1.0" standalone="no"?>
<!DOCTYPE svg PUBLIC "-//W3C//DTD SVG 1.1//EN" "http://www.w3.org/Graphics/SVG/1.1/DTD/svg11.dtd">
<svg xmlns="http://www.w3.org/2000/svg" id="Capa_1" data-name="Capa 1" viewBox="0 0 565.38 565.38" width="565.3800048828125" height="565.3800048828125">
  <defs>
    <style>
      .cls-1 {
        fill: #35b083;
        stroke-width: 0px;
      }
    </style>
  </defs>
  <path class="cls-1" d="m549.37,0H184.04C82.4,0,0,82.4,0,184.04v272.27c0,10.84,10.53,18.56,20.87,15.29h0c16.08-5.2,33.2-13.76,50.1-24.69,17.06-10.81,33.76-24.07,50.43-38.27,16.56-14.33,32.79-29.89,49.03-45.92,16.02-16.21,32.08-32.87,48.19-49.72,15.98-16.95,32.35-33.84,48.89-50.64,16.69-16.68,33.72-33.18,51.86-48.5,18.03-15.39,37.25-29.57,57.79-41.17,2.49-1.4,5.64-.53,7.05,1.96,1.25,2.21.69,4.95-1.19,6.52l-.07.06c-17.33,14.41-31.92,31.69-45.22,49.79-13.18,18.24-25.05,37.47-36.2,57.27-11.28,19.71-21.63,40.14-32.2,60.64-10.43,20.6-20.71,41.53-31.58,62.51-10.68,21.14-21.97,42.34-34.31,63.67-12.24,21.43-25.85,42.74-41.48,64.16l-.22.29c-7.92,10.66-.31,25.8,12.97,25.8h206.65c101.64,0,184.04-82.4,184.04-184.04V16.01c0-8.84-7.17-16.01-16.01-16.01Z"/>
</svg>